<?xml version="1.0" encoding="UTF-8"?>
<svg width="1200pt" height="1200pt" version="1.1" viewBox="0 0 1200 1200" xmlns="http://www.w3.org/2000/svg">
 <path d="m390 691.22 96 148.78 67.219 103.69c29.625 45.797 76.219 77.953 129.61 89.344 53.344 11.391 109.03 1.0781 154.78-28.641l62.391-40.312c122.16-82.547 102.7-192 80.156-319.45-12.891-62.062-19.641-125.26-20.156-188.63 0.046875-8.1094-5.2031-15.328-12.938-17.766-32.391-3.9375-64.734 7.7344-87.141 31.453-23.719 25.078-36.797 58.359-36.469 92.859l-145.69-226.55c-9.6562-15.141-24.938-25.781-42.469-29.531-17.672-3.6562-36.047-0.1875-51.141 9.6094-9.3281 6.0469-16.969 14.297-22.312 24l-8.3906-12.938c-20.344-31.453-62.297-40.406-93.75-20.062-31.406 20.344-40.359 62.297-20.016 93.703l8.3906 12.938v0.046875c-23.719 1.875-44.719 16.125-55.219 37.5s-8.9531 46.734 4.0781 66.656l44.156 68.156h0.046875c-23.812 1.7344-44.953 15.984-55.453 37.406-10.547 21.469-8.9062 46.875 4.3125 66.75zm25.922-43.219c1.6406-8.25 6.6094-15.422 13.688-19.922 7.0781-4.6406 15.75-6.1875 24-4.3125 8.1562 1.7344 15.328 6.6562 19.922 13.688l81.141 125.29-0.046875-0.046875c5.3906 7.8281 15.891 10.125 24 5.2969 8.0156-5.2031 10.359-15.891 5.2969-24l-79.922-126.47-76.781-118.31c-5.5312-6.9844-7.875-15.984-6.4219-24.75 1.4062-8.7656 6.4688-16.547 13.875-21.422 7.4531-4.875 16.594-6.4219 25.219-4.1719 8.625 2.2031 15.938 7.9219 20.109 15.75l126 194.63v0.046875c3.375 5.0156 9.0469 8.0625 15.141 8.1562 3.4688-0.046875 6.8906-1.0312 9.7969-2.9062 7.8281-5.3438 10.125-15.844 5.2969-24l-126-194.39-40.781-63.141v0.046874c-4.5938-7.0781-6.1875-15.703-4.4062-23.906 1.7344-8.25 6.7031-15.469 13.734-20.016 14.719-9.5625 34.406-5.3906 43.922 9.3281l40.781 63.141 126 194.63h0.046875c5.4375 7.6875 15.844 9.9844 24 5.2969 7.7812-5.3906 10.078-15.891 5.25-24l-126-194.63v-0.046874c-4.5469-7.0781-6.1406-15.703-4.3125-24 2.625-12.562 12.562-22.312 25.172-24.703 12.656-2.3438 25.453 3.1406 32.438 13.922l179.53 272.86c-42.891 26.344-61.688 78.984-45.141 126.52 2.5312 7.2656 9.375 12.141 17.062 12.234 1.9688 0.32812 3.9844 0.32812 6 0 4.7812-1.5 8.7656-4.9688 10.875-9.5625 2.1094-4.5469 2.1562-9.7969 0.14062-14.438-12.656-37.172 6.75-77.625 43.688-90.984 0 0 1.4531 0 2.3906-1.4531l3.1406-1.9219 2.1562-2.625c0.70312-0.79688 1.3594-1.6875 1.9219-2.625 0.51562-1.0781 0.89062-2.2031 1.2188-3.375 0.09375-1.0781 0.09375-2.2031 0-3.3281 0.23438-1.2188 0.23438-2.4375 0-3.6094 0.09375-0.98438 0.09375-1.9219 0-2.9062-17.062-60.703-12-107.77 14.625-136.08 10.828-11.859 24.938-20.203 40.547-24 2.1562 59.719 9.2344 119.11 21.141 177.61 21.844 124.08 37.922 213.84-64.781 283.22l-61.922 40.078h-0.046875c-78.609 50.906-183.61 28.547-234.71-49.922l-37.688-58.078-126-193.69c-4.6406-7.0781-6.1875-15.75-4.3125-24z"/>
 <path d="m732.47 293.76c-0.1875 4.7812 1.5469 9.4219 4.7812 12.938s7.7344 5.5781 12.516 5.7656c21.375 1.1719 37.781 19.406 36.703 40.828-0.23438 4.7812 1.4531 9.5156 4.6875 13.078s7.7812 5.6719 12.609 5.8594c9.6562 0 17.625-7.5938 18-17.297 0.89062-19.969-6.1875-39.469-19.688-54.188s-32.344-23.438-52.312-24.281c-9.2812 0.60938-16.688 8.0156-17.297 17.297z"/>
 <path d="m763.92 198c38.297 1.875 74.25 19.219 99.609 48 25.922 28.406 39.375 66 37.406 104.39-0.1875 4.7812 1.5469 9.4219 4.7812 12.938s7.7344 5.625 12.516 5.8125c9.5625 0 17.484-7.5 18-17.062 2.625-47.859-13.875-94.781-45.891-130.4-32.016-35.672-76.875-57.141-124.74-59.672-9.8906-0.28125-18.234 7.4062-18.75 17.297-0.375 9.8438 7.2188 18.188 17.062 18.703z"/>
 <path d="m341.76 766.08c-9.75-1.9219-19.172 4.4062-21.141 14.156-4.0312 19.453-0.046875 39.703 11.062 56.156 11.062 16.641 28.359 28.125 48 31.922h3.6094c9.5156 0.42188 17.719-6.7031 18.656-16.172 0.98438-9.5156-5.6719-18.094-15.094-19.594-9.8438-2.1562-18.469-8.1094-24-16.547-5.7656-8.4844-7.8281-18.984-5.7188-29.062 0.75-4.7812-0.46875-9.7031-3.3281-13.641-2.9062-3.8906-7.2188-6.5156-12.047-7.2188z"/>
 <path d="m227.29 752.16c-4.7344-0.98438-9.6562-0.046875-13.641 2.625-4.0312 2.6719-6.7969 6.7969-7.7344 11.531-9.6094 46.828 0.09375 95.531 26.859 135.14 26.484 39.938 67.781 67.641 114.75 77.016h3.6094c9.0469-0.23437 16.453-7.1719 17.391-16.172 0.89062-9-5.0156-17.297-13.828-19.359-37.688-7.4062-70.875-29.625-92.156-61.641-21.188-31.828-28.875-70.781-21.328-108.23 1.7344-9.6094-4.4062-18.844-13.922-20.906z"/>
</svg>
